<svg xmlns="http://www.w3.org/2000/svg" viewBox="0 0 512 512">
  <defs>
    <linearGradient id="bgGrad" x1="0%" y1="0%" x2="100%" y2="100%">
      <stop offset="0%" style="stop-color:#2563eb;stop-opacity:1" />
      <stop offset="50%" style="stop-color:#9333ea;stop-opacity:1" />
      <stop offset="100%" style="stop-color:#ec4899;stop-opacity:1" />
    </linearGradient>
  </defs>
  
  <!-- Background with gradient (matches landing page) -->
  <rect width="512" height="512" rx="96" fill="url(#bgGrad)"/>
  
  <!-- Building icon (Building2 from lucide-react, scaled and centered) -->
  <g transform="translate(106, 106) scale(12.5)" fill="none" stroke="white" stroke-width="2" stroke-linecap="round" stroke-linejoin="round">
    <path d="M6 22V4a2 2 0 0 1 2-2h8a2 2 0 0 1 2 2v18Z"/>
    <path d="M6 12H4a2 2 0 0 0-2 2v8a2 2 0 0 0 2 2h2"/>
    <path d="M18 9h2a2 2 0 0 1 2 2v9a2 2 0 0 1-2 2h-2"/>
    <path d="M10 6h4"/>
    <path d="M10 10h4"/>
    <path d="M10 14h4"/>
    <path d="M10 18h4"/>
  </g>
</svg>
